<mxfile host="app.diagrams.net" modified="2023-05-25T14:22:39.564Z" agent="Mozilla/5.0 (Windows NT 10.0; Win64; x64) AppleWebKit/537.36 (KHTML, like Gecko) Chrome/112.0.0.0 Safari/537.36 OPR/98.0.0.0" etag="Lff1wmf2zEIaXkuPp1ty" version="21.3.3" type="device">
  <diagram name="Pagina-1" id="DQh6bFEMEt-6OpY86g35">
    <mxGraphModel dx="1235" dy="638" grid="1" gridSize="10" guides="1" tooltips="1" connect="1" arrows="1" fold="1" page="1" pageScale="1" pageWidth="827" pageHeight="1169" math="0" shadow="0">
      <root>
        <mxCell id="0" />
        <mxCell id="1" parent="0" />
        <mxCell id="uTGB7-8AL9huUT3PJvHm-2" value="" style="rounded=0;whiteSpace=wrap;html=1;fillColor=none;strokeColor=#b85450;" parent="1" vertex="1">
          <mxGeometry x="20" y="270" width="400" height="230" as="geometry" />
        </mxCell>
        <mxCell id="uTGB7-8AL9huUT3PJvHm-3" value="InterfacciaProfessionista" style="rounded=0;whiteSpace=wrap;html=1;fillColor=#f8cecc;strokeColor=#b85450;" parent="1" vertex="1">
          <mxGeometry x="20" y="240" width="150" height="30" as="geometry" />
        </mxCell>
        <mxCell id="uTGB7-8AL9huUT3PJvHm-4" value="Home Gestione Professionista" style="rounded=0;whiteSpace=wrap;html=1;fillColor=#f8cecc;strokeColor=#b85450;" parent="1" vertex="1">
          <mxGeometry x="130" y="290" width="170" height="20" as="geometry" />
        </mxCell>
        <mxCell id="uTGB7-8AL9huUT3PJvHm-5" value="" style="rounded=0;whiteSpace=wrap;html=1;fillColor=#f5f5f5;fontColor=#333333;strokeColor=#666666;" parent="1" vertex="1">
          <mxGeometry x="130" y="310" width="170" height="30" as="geometry" />
        </mxCell>
        <mxCell id="uTGB7-8AL9huUT3PJvHm-6" value="" style="endArrow=none;html=1;rounded=0;exitX=0;exitY=0.5;exitDx=0;exitDy=0;entryX=1;entryY=0.5;entryDx=0;entryDy=0;" parent="1" source="uTGB7-8AL9huUT3PJvHm-5" target="uTGB7-8AL9huUT3PJvHm-5" edge="1">
          <mxGeometry width="50" height="50" relative="1" as="geometry">
            <mxPoint x="350" y="390" as="sourcePoint" />
            <mxPoint x="400" y="340" as="targetPoint" />
          </mxGeometry>
        </mxCell>
        <mxCell id="uTGB7-8AL9huUT3PJvHm-7" value="View Creazione ProPost" style="rounded=0;whiteSpace=wrap;html=1;fillColor=#f8cecc;strokeColor=#b85450;" parent="1" vertex="1">
          <mxGeometry x="40" y="360" width="140" height="30" as="geometry" />
        </mxCell>
        <mxCell id="uTGB7-8AL9huUT3PJvHm-8" value="" style="rounded=0;whiteSpace=wrap;html=1;fillColor=#f5f5f5;fontColor=#333333;strokeColor=#666666;" parent="1" vertex="1">
          <mxGeometry x="40" y="390" width="140" height="40" as="geometry" />
        </mxCell>
        <mxCell id="uTGB7-8AL9huUT3PJvHm-9" value="" style="endArrow=none;html=1;rounded=0;exitX=0;exitY=0.5;exitDx=0;exitDy=0;entryX=1;entryY=0.5;entryDx=0;entryDy=0;" parent="1" source="uTGB7-8AL9huUT3PJvHm-8" target="uTGB7-8AL9huUT3PJvHm-8" edge="1">
          <mxGeometry width="50" height="50" relative="1" as="geometry">
            <mxPoint x="350" y="390" as="sourcePoint" />
            <mxPoint x="400" y="340" as="targetPoint" />
          </mxGeometry>
        </mxCell>
        <mxCell id="uTGB7-8AL9huUT3PJvHm-10" value="View Modifica Profilo Professionista" style="rounded=0;whiteSpace=wrap;html=1;fillColor=#f8cecc;strokeColor=#b85450;" parent="1" vertex="1">
          <mxGeometry x="240" y="360" width="160" height="30" as="geometry" />
        </mxCell>
        <mxCell id="uTGB7-8AL9huUT3PJvHm-11" value="" style="rounded=0;whiteSpace=wrap;html=1;fillColor=#f5f5f5;fontColor=#333333;strokeColor=#666666;" parent="1" vertex="1">
          <mxGeometry x="240" y="390" width="160" height="40" as="geometry" />
        </mxCell>
        <mxCell id="uTGB7-8AL9huUT3PJvHm-12" value="" style="endArrow=none;html=1;rounded=0;exitX=0;exitY=0.5;exitDx=0;exitDy=0;entryX=1;entryY=0.5;entryDx=0;entryDy=0;" parent="1" source="uTGB7-8AL9huUT3PJvHm-11" target="uTGB7-8AL9huUT3PJvHm-11" edge="1">
          <mxGeometry width="50" height="50" relative="1" as="geometry">
            <mxPoint x="350" y="390" as="sourcePoint" />
            <mxPoint x="400" y="340" as="targetPoint" />
          </mxGeometry>
        </mxCell>
        <mxCell id="uTGB7-8AL9huUT3PJvHm-13" value="" style="endArrow=none;html=1;rounded=0;exitX=1;exitY=0.323;exitDx=0;exitDy=0;exitPerimeter=0;" parent="1" source="uTGB7-8AL9huUT3PJvHm-5" edge="1">
          <mxGeometry width="50" height="50" relative="1" as="geometry">
            <mxPoint x="350" y="390" as="sourcePoint" />
            <mxPoint x="360" y="320" as="targetPoint" />
          </mxGeometry>
        </mxCell>
        <mxCell id="uTGB7-8AL9huUT3PJvHm-14" value="" style="endArrow=classic;html=1;rounded=0;entryX=0.75;entryY=0;entryDx=0;entryDy=0;" parent="1" target="uTGB7-8AL9huUT3PJvHm-10" edge="1">
          <mxGeometry width="50" height="50" relative="1" as="geometry">
            <mxPoint x="360" y="320" as="sourcePoint" />
            <mxPoint x="400" y="320" as="targetPoint" />
          </mxGeometry>
        </mxCell>
        <mxCell id="uTGB7-8AL9huUT3PJvHm-15" value="" style="endArrow=none;html=1;rounded=0;exitX=-0.001;exitY=0.356;exitDx=0;exitDy=0;exitPerimeter=0;" parent="1" source="uTGB7-8AL9huUT3PJvHm-5" edge="1">
          <mxGeometry width="50" height="50" relative="1" as="geometry">
            <mxPoint x="180" y="370" as="sourcePoint" />
            <mxPoint x="80" y="360" as="targetPoint" />
            <Array as="points">
              <mxPoint x="80" y="320" />
            </Array>
          </mxGeometry>
        </mxCell>
        <mxCell id="uTGB7-8AL9huUT3PJvHm-16" value="" style="endArrow=classic;html=1;rounded=0;entryX=0.287;entryY=0.007;entryDx=0;entryDy=0;entryPerimeter=0;" parent="1" target="uTGB7-8AL9huUT3PJvHm-7" edge="1">
          <mxGeometry width="50" height="50" relative="1" as="geometry">
            <mxPoint x="80" y="320" as="sourcePoint" />
            <mxPoint x="150" y="320" as="targetPoint" />
          </mxGeometry>
        </mxCell>
        <mxCell id="uTGB7-8AL9huUT3PJvHm-17" value="" style="rounded=0;whiteSpace=wrap;html=1;fillColor=none;strokeColor=#82b366;" parent="1" vertex="1">
          <mxGeometry x="480" y="500" width="200" height="140" as="geometry" />
        </mxCell>
        <mxCell id="uTGB7-8AL9huUT3PJvHm-18" value="Log" style="rounded=0;whiteSpace=wrap;html=1;fillColor=#d5e8d4;strokeColor=#82b366;" parent="1" vertex="1">
          <mxGeometry x="480" y="470" width="120" height="30" as="geometry" />
        </mxCell>
        <mxCell id="uTGB7-8AL9huUT3PJvHm-19" value="" style="rounded=0;whiteSpace=wrap;html=1;fillColor=none;strokeColor=#b85450;" parent="1" vertex="1">
          <mxGeometry x="700" y="190" width="980" height="395" as="geometry" />
        </mxCell>
        <mxCell id="uTGB7-8AL9huUT3PJvHm-20" value="InterfacciaUtenteStandard" style="rounded=0;whiteSpace=wrap;html=1;fillColor=#f8cecc;strokeColor=#b85450;" parent="1" vertex="1">
          <mxGeometry x="705" y="160" width="150" height="30" as="geometry" />
        </mxCell>
        <mxCell id="uTGB7-8AL9huUT3PJvHm-103" style="edgeStyle=orthogonalEdgeStyle;rounded=0;orthogonalLoop=1;jettySize=auto;html=1;exitX=1;exitY=0.75;exitDx=0;exitDy=0;entryX=0.25;entryY=0;entryDx=0;entryDy=0;" parent="1" source="uTGB7-8AL9huUT3PJvHm-21" target="uTGB7-8AL9huUT3PJvHm-97" edge="1">
          <mxGeometry relative="1" as="geometry" />
        </mxCell>
        <mxCell id="uTGB7-8AL9huUT3PJvHm-21" value="Home GestioneUtenteStandard" style="rounded=0;whiteSpace=wrap;html=1;fillColor=#f8cecc;strokeColor=#b85450;" parent="1" vertex="1">
          <mxGeometry x="1010.5" y="215" width="175" height="20" as="geometry" />
        </mxCell>
        <mxCell id="uTGB7-8AL9huUT3PJvHm-22" value="" style="rounded=0;whiteSpace=wrap;html=1;fillColor=#EBEBEB;strokeColor=#b85450;" parent="1" vertex="1">
          <mxGeometry x="1010.5" y="235" width="175" height="30" as="geometry" />
        </mxCell>
        <mxCell id="uTGB7-8AL9huUT3PJvHm-23" value="" style="endArrow=none;html=1;rounded=0;entryX=1;entryY=0.5;entryDx=0;entryDy=0;exitX=0;exitY=0.5;exitDx=0;exitDy=0;strokeColor=#666666;fillColor=#f5f5f5;" parent="1" source="uTGB7-8AL9huUT3PJvHm-22" target="uTGB7-8AL9huUT3PJvHm-22" edge="1">
          <mxGeometry width="50" height="50" relative="1" as="geometry">
            <mxPoint x="973" y="235" as="sourcePoint" />
            <mxPoint x="1023" y="185" as="targetPoint" />
          </mxGeometry>
        </mxCell>
        <mxCell id="uTGB7-8AL9huUT3PJvHm-179" style="edgeStyle=orthogonalEdgeStyle;rounded=0;orthogonalLoop=1;jettySize=auto;html=1;exitX=0.5;exitY=1;exitDx=0;exitDy=0;entryX=0.34;entryY=-0.044;entryDx=0;entryDy=0;entryPerimeter=0;jumpStyle=arc;jumpSize=0;" parent="1" source="uTGB7-8AL9huUT3PJvHm-24" target="uTGB7-8AL9huUT3PJvHm-134" edge="1">
          <mxGeometry relative="1" as="geometry" />
        </mxCell>
        <mxCell id="uTGB7-8AL9huUT3PJvHm-197" style="edgeStyle=orthogonalEdgeStyle;shape=connector;curved=1;rounded=0;orthogonalLoop=1;jettySize=auto;html=1;exitX=0.75;exitY=1;exitDx=0;exitDy=0;dashed=1;dashPattern=8 8;labelBackgroundColor=default;strokeColor=#99CCFF;fontFamily=Helvetica;fontSize=11;fontColor=default;endArrow=classic;" parent="1" source="uTGB7-8AL9huUT3PJvHm-24" edge="1">
          <mxGeometry relative="1" as="geometry">
            <mxPoint x="1060" y="670" as="targetPoint" />
            <Array as="points">
              <mxPoint x="996" y="470" />
              <mxPoint x="1130" y="470" />
              <mxPoint x="1130" y="640" />
              <mxPoint x="1060" y="640" />
            </Array>
          </mxGeometry>
        </mxCell>
        <mxCell id="uTGB7-8AL9huUT3PJvHm-24" value="" style="rounded=0;whiteSpace=wrap;html=1;fillColor=#f5f5f5;fontColor=#333333;strokeColor=#666666;" parent="1" vertex="1">
          <mxGeometry x="883" y="299" width="150" height="40" as="geometry" />
        </mxCell>
        <mxCell id="uTGB7-8AL9huUT3PJvHm-117" style="edgeStyle=orthogonalEdgeStyle;rounded=0;orthogonalLoop=1;jettySize=auto;html=1;exitX=0;exitY=1;exitDx=0;exitDy=0;entryX=0.5;entryY=1;entryDx=0;entryDy=0;jumpStyle=arc;" parent="1" source="uTGB7-8AL9huUT3PJvHm-31" target="uTGB7-8AL9huUT3PJvHm-101" edge="1">
          <mxGeometry relative="1" as="geometry" />
        </mxCell>
        <mxCell id="uTGB7-8AL9huUT3PJvHm-25" value="ViewProfiloPersonale" style="rounded=0;whiteSpace=wrap;html=1;fillColor=#f8cecc;strokeColor=#b85450;" parent="1" vertex="1">
          <mxGeometry x="1208" y="275" width="122" height="30" as="geometry" />
        </mxCell>
        <mxCell id="uTGB7-8AL9huUT3PJvHm-116" style="edgeStyle=orthogonalEdgeStyle;rounded=0;orthogonalLoop=1;jettySize=auto;html=1;exitX=0;exitY=1;exitDx=0;exitDy=0;" parent="1" source="uTGB7-8AL9huUT3PJvHm-26" target="uTGB7-8AL9huUT3PJvHm-112" edge="1">
          <mxGeometry relative="1" as="geometry">
            <Array as="points">
              <mxPoint x="883" y="290" />
            </Array>
          </mxGeometry>
        </mxCell>
        <mxCell id="uTGB7-8AL9huUT3PJvHm-26" value="ViewPost" style="rounded=0;whiteSpace=wrap;html=1;fillColor=#f8cecc;strokeColor=#b85450;" parent="1" vertex="1">
          <mxGeometry x="883" y="269" width="150" height="30" as="geometry" />
        </mxCell>
        <mxCell id="uTGB7-8AL9huUT3PJvHm-27" value="" style="endArrow=none;html=1;rounded=0;exitX=0;exitY=0.5;exitDx=0;exitDy=0;entryX=1;entryY=0.5;entryDx=0;entryDy=0;" parent="1" source="uTGB7-8AL9huUT3PJvHm-24" target="uTGB7-8AL9huUT3PJvHm-24" edge="1">
          <mxGeometry width="50" height="50" relative="1" as="geometry">
            <mxPoint x="1143" y="299" as="sourcePoint" />
            <mxPoint x="1193" y="249" as="targetPoint" />
          </mxGeometry>
        </mxCell>
        <mxCell id="uTGB7-8AL9huUT3PJvHm-129" style="edgeStyle=orthogonalEdgeStyle;rounded=0;orthogonalLoop=1;jettySize=auto;html=1;exitX=0.5;exitY=1;exitDx=0;exitDy=0;entryX=0.403;entryY=0.044;entryDx=0;entryDy=0;entryPerimeter=0;" parent="1" source="uTGB7-8AL9huUT3PJvHm-28" target="uTGB7-8AL9huUT3PJvHm-119" edge="1">
          <mxGeometry relative="1" as="geometry">
            <Array as="points">
              <mxPoint x="1289" y="345" />
            </Array>
          </mxGeometry>
        </mxCell>
        <mxCell id="uTGB7-8AL9huUT3PJvHm-200" style="edgeStyle=orthogonalEdgeStyle;shape=connector;curved=1;rounded=0;orthogonalLoop=1;jettySize=auto;html=1;exitX=0;exitY=1;exitDx=0;exitDy=0;entryX=0.5;entryY=0;entryDx=0;entryDy=0;dashed=1;dashPattern=8 8;labelBackgroundColor=default;strokeColor=#99CCFF;fontFamily=Helvetica;fontSize=11;fontColor=default;endArrow=classic;" parent="1" source="uTGB7-8AL9huUT3PJvHm-28" target="uTGB7-8AL9huUT3PJvHm-68" edge="1">
          <mxGeometry relative="1" as="geometry">
            <Array as="points">
              <mxPoint x="1208" y="580" />
              <mxPoint x="1065" y="580" />
            </Array>
          </mxGeometry>
        </mxCell>
        <mxCell id="uTGB7-8AL9huUT3PJvHm-28" value="" style="rounded=0;whiteSpace=wrap;html=1;fillColor=#f5f5f5;fontColor=#333333;strokeColor=#666666;" parent="1" vertex="1">
          <mxGeometry x="1208" y="305" width="122" height="40" as="geometry" />
        </mxCell>
        <mxCell id="uTGB7-8AL9huUT3PJvHm-29" value="" style="endArrow=none;html=1;rounded=0;exitX=0;exitY=0.5;exitDx=0;exitDy=0;entryX=1;entryY=0.5;entryDx=0;entryDy=0;fillColor=#f5f5f5;strokeColor=#666666;" parent="1" source="uTGB7-8AL9huUT3PJvHm-28" target="uTGB7-8AL9huUT3PJvHm-28" edge="1">
          <mxGeometry width="50" height="50" relative="1" as="geometry">
            <mxPoint x="1178" y="305" as="sourcePoint" />
            <mxPoint x="1228" y="255" as="targetPoint" />
          </mxGeometry>
        </mxCell>
        <mxCell id="uTGB7-8AL9huUT3PJvHm-30" value="ViewRicerca" style="rounded=0;whiteSpace=wrap;html=1;fillColor=#f8cecc;strokeColor=#b85450;" parent="1" vertex="1">
          <mxGeometry x="1051" y="295" width="150" height="20" as="geometry" />
        </mxCell>
        <mxCell id="uTGB7-8AL9huUT3PJvHm-128" style="edgeStyle=orthogonalEdgeStyle;rounded=0;orthogonalLoop=1;jettySize=auto;html=1;exitX=0.5;exitY=1;exitDx=0;exitDy=0;entryX=0.5;entryY=0;entryDx=0;entryDy=0;" parent="1" source="uTGB7-8AL9huUT3PJvHm-31" target="uTGB7-8AL9huUT3PJvHm-107" edge="1">
          <mxGeometry relative="1" as="geometry" />
        </mxCell>
        <mxCell id="uTGB7-8AL9huUT3PJvHm-199" style="edgeStyle=orthogonalEdgeStyle;shape=connector;curved=1;rounded=0;orthogonalLoop=1;jettySize=auto;html=1;exitX=0;exitY=1;exitDx=0;exitDy=0;dashed=1;dashPattern=8 8;labelBackgroundColor=default;strokeColor=#99CCFF;fontFamily=Helvetica;fontSize=11;fontColor=default;endArrow=classic;" parent="1" source="uTGB7-8AL9huUT3PJvHm-31" edge="1">
          <mxGeometry relative="1" as="geometry">
            <mxPoint x="1070" y="660" as="targetPoint" />
            <Array as="points">
              <mxPoint x="1020" y="355" />
              <mxPoint x="1020" y="470" />
              <mxPoint x="1110" y="470" />
              <mxPoint x="1110" y="640" />
              <mxPoint x="1070" y="640" />
            </Array>
          </mxGeometry>
        </mxCell>
        <mxCell id="uTGB7-8AL9huUT3PJvHm-31" value="" style="rounded=0;whiteSpace=wrap;html=1;fillColor=#f5f5f5;fontColor=#333333;strokeColor=#666666;" parent="1" vertex="1">
          <mxGeometry x="1051" y="315" width="150" height="40" as="geometry" />
        </mxCell>
        <mxCell id="uTGB7-8AL9huUT3PJvHm-32" value="" style="endArrow=none;html=1;rounded=0;exitX=0;exitY=0.5;exitDx=0;exitDy=0;entryX=1;entryY=0.5;entryDx=0;entryDy=0;" parent="1" source="uTGB7-8AL9huUT3PJvHm-31" target="uTGB7-8AL9huUT3PJvHm-31" edge="1">
          <mxGeometry width="50" height="50" relative="1" as="geometry">
            <mxPoint x="1161" y="245" as="sourcePoint" />
            <mxPoint x="1211" y="195" as="targetPoint" />
          </mxGeometry>
        </mxCell>
        <mxCell id="uTGB7-8AL9huUT3PJvHm-33" value="" style="endArrow=classic;html=1;rounded=0;exitX=0.628;exitY=1.004;exitDx=0;exitDy=0;exitPerimeter=0;entryX=0.468;entryY=-0.01;entryDx=0;entryDy=0;entryPerimeter=0;" parent="1" source="uTGB7-8AL9huUT3PJvHm-22" target="uTGB7-8AL9huUT3PJvHm-30" edge="1">
          <mxGeometry width="50" height="50" relative="1" as="geometry">
            <mxPoint x="1143" y="375" as="sourcePoint" />
            <mxPoint x="1193" y="325" as="targetPoint" />
          </mxGeometry>
        </mxCell>
        <mxCell id="uTGB7-8AL9huUT3PJvHm-34" value="" style="endArrow=classic;html=1;rounded=0;exitX=0.998;exitY=0.313;exitDx=0;exitDy=0;entryX=0.5;entryY=0;entryDx=0;entryDy=0;exitPerimeter=0;" parent="1" source="uTGB7-8AL9huUT3PJvHm-22" target="uTGB7-8AL9huUT3PJvHm-25" edge="1">
          <mxGeometry width="50" height="50" relative="1" as="geometry">
            <mxPoint x="1143" y="305" as="sourcePoint" />
            <mxPoint x="1193" y="255" as="targetPoint" />
            <Array as="points">
              <mxPoint x="1269" y="244" />
            </Array>
          </mxGeometry>
        </mxCell>
        <mxCell id="uTGB7-8AL9huUT3PJvHm-35" value="" style="endArrow=classic;html=1;rounded=0;exitX=0;exitY=0.25;exitDx=0;exitDy=0;entryX=0.5;entryY=0;entryDx=0;entryDy=0;" parent="1" source="uTGB7-8AL9huUT3PJvHm-22" target="uTGB7-8AL9huUT3PJvHm-26" edge="1">
          <mxGeometry width="50" height="50" relative="1" as="geometry">
            <mxPoint x="1013" y="285" as="sourcePoint" />
            <mxPoint x="1063" y="235" as="targetPoint" />
            <Array as="points">
              <mxPoint x="958" y="243" />
            </Array>
          </mxGeometry>
        </mxCell>
        <mxCell id="uTGB7-8AL9huUT3PJvHm-36" value="Logger" style="rounded=0;whiteSpace=wrap;html=1;fillColor=#d5e8d4;strokeColor=#82b366;" parent="1" vertex="1">
          <mxGeometry x="502.5" y="540" width="145" height="20" as="geometry" />
        </mxCell>
        <mxCell id="uTGB7-8AL9huUT3PJvHm-37" value="&lt;br&gt;+AggiungiLog(VoceDiLog)&lt;br&gt;" style="rounded=0;whiteSpace=wrap;html=1;fillColor=#f5f5f5;fontColor=#333333;strokeColor=#666666;" parent="1" vertex="1">
          <mxGeometry x="502.5" y="560" width="145" height="40" as="geometry" />
        </mxCell>
        <mxCell id="uTGB7-8AL9huUT3PJvHm-38" value="" style="endArrow=none;html=1;rounded=0;exitX=0;exitY=0.5;exitDx=0;exitDy=0;entryX=1;entryY=0.5;entryDx=0;entryDy=0;" parent="1" source="uTGB7-8AL9huUT3PJvHm-37" target="uTGB7-8AL9huUT3PJvHm-37" edge="1">
          <mxGeometry width="50" height="50" relative="1" as="geometry">
            <mxPoint x="610" y="480" as="sourcePoint" />
            <mxPoint x="660" y="430" as="targetPoint" />
          </mxGeometry>
        </mxCell>
        <mxCell id="uTGB7-8AL9huUT3PJvHm-39" value="" style="rounded=0;whiteSpace=wrap;html=1;fillColor=none;strokeColor=#82b366;" parent="1" vertex="1">
          <mxGeometry x="10" y="570" width="410" height="410" as="geometry" />
        </mxCell>
        <mxCell id="uTGB7-8AL9huUT3PJvHm-40" value="GestioneProfessionista" style="rounded=0;whiteSpace=wrap;html=1;fillColor=#d5e8d4;strokeColor=#82b366;" parent="1" vertex="1">
          <mxGeometry x="11" y="550" width="130" height="20" as="geometry" />
        </mxCell>
        <mxCell id="uTGB7-8AL9huUT3PJvHm-41" value="GestioneProfessionista Controller" style="rounded=0;whiteSpace=wrap;html=1;fillColor=#d5e8d4;strokeColor=#82b366;" parent="1" vertex="1">
          <mxGeometry x="80" y="595" width="260" height="20" as="geometry" />
        </mxCell>
        <mxCell id="uTGB7-8AL9huUT3PJvHm-42" value="" style="rounded=0;whiteSpace=wrap;html=1;fillColor=#f5f5f5;fontColor=#333333;strokeColor=#666666;" parent="1" vertex="1">
          <mxGeometry x="80" y="615" width="260" height="80" as="geometry" />
        </mxCell>
        <mxCell id="uTGB7-8AL9huUT3PJvHm-43" value="" style="endArrow=none;html=1;rounded=0;exitX=0;exitY=0.25;exitDx=0;exitDy=0;entryX=1;entryY=0.25;entryDx=0;entryDy=0;" parent="1" source="uTGB7-8AL9huUT3PJvHm-42" target="uTGB7-8AL9huUT3PJvHm-42" edge="1">
          <mxGeometry width="50" height="50" relative="1" as="geometry">
            <mxPoint x="230" y="680" as="sourcePoint" />
            <mxPoint x="280" y="630" as="targetPoint" />
          </mxGeometry>
        </mxCell>
        <mxCell id="uTGB7-8AL9huUT3PJvHm-44" value="Creazione ProPost Controller" style="rounded=0;whiteSpace=wrap;html=1;fillColor=#d5e8d4;strokeColor=#82b366;" parent="1" vertex="1">
          <mxGeometry x="40" y="735" width="170" height="35" as="geometry" />
        </mxCell>
        <mxCell id="uTGB7-8AL9huUT3PJvHm-47" value="" style="endArrow=classic;html=1;rounded=0;exitX=0.5;exitY=1;exitDx=0;exitDy=0;entryX=0.5;entryY=0;entryDx=0;entryDy=0;" parent="1" source="uTGB7-8AL9huUT3PJvHm-42" target="uTGB7-8AL9huUT3PJvHm-44" edge="1">
          <mxGeometry width="50" height="50" relative="1" as="geometry">
            <mxPoint x="260" y="750" as="sourcePoint" />
            <mxPoint x="310" y="700" as="targetPoint" />
          </mxGeometry>
        </mxCell>
        <mxCell id="uTGB7-8AL9huUT3PJvHm-48" value="1" style="text;html=1;strokeColor=none;fillColor=none;align=center;verticalAlign=middle;whiteSpace=wrap;rounded=0;" parent="1" vertex="1">
          <mxGeometry x="280" y="710" width="60" height="30" as="geometry" />
        </mxCell>
        <mxCell id="uTGB7-8AL9huUT3PJvHm-49" value="1" style="text;html=1;strokeColor=none;fillColor=none;align=center;verticalAlign=middle;whiteSpace=wrap;rounded=0;" parent="1" vertex="1">
          <mxGeometry x="60" y="710" width="60" height="30" as="geometry" />
        </mxCell>
        <mxCell id="uTGB7-8AL9huUT3PJvHm-50" value="&amp;lt;&amp;lt;uses&amp;gt;&amp;gt;" style="endArrow=classic;html=1;rounded=0;exitX=0.5;exitY=1;exitDx=0;exitDy=0;entryX=0.5;entryY=0;entryDx=0;entryDy=0;dashed=1;" parent="1" source="uTGB7-8AL9huUT3PJvHm-8" target="uTGB7-8AL9huUT3PJvHm-41" edge="1">
          <mxGeometry width="50" height="50" relative="1" as="geometry">
            <mxPoint x="260" y="470" as="sourcePoint" />
            <mxPoint x="310" y="420" as="targetPoint" />
          </mxGeometry>
        </mxCell>
        <mxCell id="uTGB7-8AL9huUT3PJvHm-51" value="&amp;lt;&amp;lt;uses&amp;gt;&amp;gt;" style="endArrow=classic;html=1;rounded=0;exitX=0.5;exitY=1;exitDx=0;exitDy=0;entryX=0.5;entryY=0;entryDx=0;entryDy=0;dashed=1;" parent="1" source="uTGB7-8AL9huUT3PJvHm-11" target="uTGB7-8AL9huUT3PJvHm-41" edge="1">
          <mxGeometry width="50" height="50" relative="1" as="geometry">
            <mxPoint x="260" y="470" as="sourcePoint" />
            <mxPoint x="310" y="420" as="targetPoint" />
          </mxGeometry>
        </mxCell>
        <mxCell id="uTGB7-8AL9huUT3PJvHm-63" value="&amp;lt;&amp;lt;uses&amp;gt;&amp;gt;" style="endArrow=none;html=1;rounded=0;exitX=0.999;exitY=0.804;exitDx=0;exitDy=0;exitPerimeter=0;dashed=1;" parent="1" source="uTGB7-8AL9huUT3PJvHm-42" edge="1">
          <mxGeometry width="50" height="50" relative="1" as="geometry">
            <mxPoint x="310" y="740" as="sourcePoint" />
            <mxPoint x="580" y="680" as="targetPoint" />
          </mxGeometry>
        </mxCell>
        <mxCell id="uTGB7-8AL9huUT3PJvHm-64" value="&amp;lt;&amp;lt;uses&amp;gt;&amp;gt;" style="endArrow=none;html=1;rounded=0;dashed=1;exitX=1;exitY=0.5;exitDx=0;exitDy=0;" parent="1" edge="1" source="qGIBENsIal78VmMxlY2n-10">
          <mxGeometry width="50" height="50" relative="1" as="geometry">
            <mxPoint x="340" y="800" as="sourcePoint" />
            <mxPoint x="580" y="800" as="targetPoint" />
          </mxGeometry>
        </mxCell>
        <mxCell id="uTGB7-8AL9huUT3PJvHm-65" value="" style="endArrow=none;html=1;rounded=0;entryX=0.5;entryY=1;entryDx=0;entryDy=0;" parent="1" edge="1">
          <mxGeometry width="50" height="50" relative="1" as="geometry">
            <mxPoint x="579" y="800" as="sourcePoint" />
            <mxPoint x="579" y="640" as="targetPoint" />
          </mxGeometry>
        </mxCell>
        <mxCell id="uTGB7-8AL9huUT3PJvHm-66" value="" style="rounded=0;whiteSpace=wrap;html=1;fillColor=none;strokeColor=#82b366;" parent="1" vertex="1">
          <mxGeometry x="705" y="650" width="1145" height="350" as="geometry" />
        </mxCell>
        <mxCell id="uTGB7-8AL9huUT3PJvHm-67" value="GestioneUtente" style="rounded=0;whiteSpace=wrap;html=1;fillColor=#d5e8d4;strokeColor=#82b366;" parent="1" vertex="1">
          <mxGeometry x="705" y="620" width="120" height="30" as="geometry" />
        </mxCell>
        <mxCell id="uTGB7-8AL9huUT3PJvHm-68" value="HomeController" style="rounded=0;whiteSpace=wrap;html=1;fillColor=#d5e8d4;strokeColor=#82b366;fontStyle=0" parent="1" vertex="1">
          <mxGeometry x="993" y="665" width="145" height="20" as="geometry" />
        </mxCell>
        <mxCell id="uTGB7-8AL9huUT3PJvHm-87" style="edgeStyle=orthogonalEdgeStyle;rounded=0;orthogonalLoop=1;jettySize=auto;html=1;exitX=1;exitY=0.5;exitDx=0;exitDy=0;" parent="1" source="uTGB7-8AL9huUT3PJvHm-69" edge="1">
          <mxGeometry relative="1" as="geometry">
            <mxPoint x="1235" y="705" as="targetPoint" />
          </mxGeometry>
        </mxCell>
        <mxCell id="uTGB7-8AL9huUT3PJvHm-89" style="edgeStyle=orthogonalEdgeStyle;rounded=0;orthogonalLoop=1;jettySize=auto;html=1;exitX=0.5;exitY=1;exitDx=0;exitDy=0;entryX=0.442;entryY=-0.01;entryDx=0;entryDy=0;entryPerimeter=0;" parent="1" source="uTGB7-8AL9huUT3PJvHm-69" target="uTGB7-8AL9huUT3PJvHm-81" edge="1">
          <mxGeometry relative="1" as="geometry" />
        </mxCell>
        <mxCell id="uTGB7-8AL9huUT3PJvHm-90" style="edgeStyle=orthogonalEdgeStyle;rounded=0;orthogonalLoop=1;jettySize=auto;html=1;exitX=0;exitY=0.25;exitDx=0;exitDy=0;entryX=0.456;entryY=0.01;entryDx=0;entryDy=0;entryPerimeter=0;" parent="1" source="uTGB7-8AL9huUT3PJvHm-69" target="uTGB7-8AL9huUT3PJvHm-77" edge="1">
          <mxGeometry relative="1" as="geometry" />
        </mxCell>
        <mxCell id="uTGB7-8AL9huUT3PJvHm-69" value="+VisualizzaPost()" style="rounded=0;whiteSpace=wrap;html=1;fillColor=#f5f5f5;strokeColor=#666666;align=left;verticalAlign=bottom;" parent="1" vertex="1">
          <mxGeometry x="993" y="685" width="145" height="40" as="geometry" />
        </mxCell>
        <mxCell id="uTGB7-8AL9huUT3PJvHm-70" value="" style="endArrow=none;html=1;rounded=0;exitX=0;exitY=0.5;exitDx=0;exitDy=0;entryX=1;entryY=0.5;entryDx=0;entryDy=0;" parent="1" source="uTGB7-8AL9huUT3PJvHm-69" target="uTGB7-8AL9huUT3PJvHm-69" edge="1">
          <mxGeometry width="50" height="50" relative="1" as="geometry">
            <mxPoint x="1003" y="625" as="sourcePoint" />
            <mxPoint x="1053" y="575" as="targetPoint" />
          </mxGeometry>
        </mxCell>
        <mxCell id="uTGB7-8AL9huUT3PJvHm-71" value="GestioneContenutiController" style="rounded=0;whiteSpace=wrap;html=1;fillColor=#d5e8d4;strokeColor=#82b366;" parent="1" vertex="1">
          <mxGeometry x="1235" y="665" width="220" height="25" as="geometry" />
        </mxCell>
        <mxCell id="uTGB7-8AL9huUT3PJvHm-72" value="&lt;br&gt;+CondividiPost(username,&lt;br&gt;Post)&lt;br&gt;+EliminazionePost(username,&lt;br&gt;IdPost)&lt;br&gt;+CreazioneCommento(username,&lt;br&gt;Commento)&lt;br&gt;+EliminazioneCommento(username,&lt;br&gt;IdCommento)&lt;br&gt;+SegnalarePost(username,&lt;br&gt;IdPost)&lt;br&gt;+SegnalareCommento(username, IdCommento)&lt;br&gt;+ApprezzareContenuti(username,&lt;br&gt;IdPost)" style="rounded=0;whiteSpace=wrap;html=1;fillColor=#f5f5f5;fontColor=#333333;strokeColor=#666666;" parent="1" vertex="1">
          <mxGeometry x="1235" y="690" width="220" height="230" as="geometry" />
        </mxCell>
        <mxCell id="uTGB7-8AL9huUT3PJvHm-77" value="RicercaController" style="rounded=0;whiteSpace=wrap;html=1;fillColor=#d5e8d4;strokeColor=#82b366;" parent="1" vertex="1">
          <mxGeometry x="735" y="750" width="200" height="20" as="geometry" />
        </mxCell>
        <mxCell id="uTGB7-8AL9huUT3PJvHm-80" value="" style="endArrow=none;html=1;rounded=0;exitX=0.004;exitY=0.149;exitDx=0;exitDy=0;exitPerimeter=0;" parent="1" edge="1" source="qGIBENsIal78VmMxlY2n-1">
          <mxGeometry width="50" height="50" relative="1" as="geometry">
            <mxPoint x="735" y="790" as="sourcePoint" />
            <mxPoint x="935" y="790" as="targetPoint" />
          </mxGeometry>
        </mxCell>
        <mxCell id="uTGB7-8AL9huUT3PJvHm-81" value="GestioneProfiloController" style="rounded=0;whiteSpace=wrap;html=1;fillColor=#d5e8d4;strokeColor=#82b366;fontStyle=0" parent="1" vertex="1">
          <mxGeometry x="955" y="800" width="250" height="20" as="geometry" />
        </mxCell>
        <mxCell id="uTGB7-8AL9huUT3PJvHm-82" value="&lt;br&gt;+AggiungereAnimale(username,animale)&lt;br&gt;+RimuovereAnimale(username,IdAnimale)&lt;br&gt;+ModificaProfiloAnimale(username,IdAnimale,&lt;br&gt;Animale)&lt;br&gt;+ModificaProfilo(username, profilo)" style="rounded=0;whiteSpace=wrap;html=1;fillColor=#f5f5f5;fontColor=#333333;strokeColor=#666666;fontStyle=0" parent="1" vertex="1">
          <mxGeometry x="955" y="820" width="250" height="130" as="geometry" />
        </mxCell>
        <mxCell id="uTGB7-8AL9huUT3PJvHm-83" value="" style="endArrow=none;html=1;rounded=0;exitX=0.004;exitY=0.149;exitDx=0;exitDy=0;entryX=0.998;entryY=0.15;entryDx=0;entryDy=0;entryPerimeter=0;exitPerimeter=0;fontStyle=0" parent="1" source="uTGB7-8AL9huUT3PJvHm-82" target="uTGB7-8AL9huUT3PJvHm-82" edge="1">
          <mxGeometry width="50" height="50" relative="1" as="geometry">
            <mxPoint x="835" y="759.86" as="sourcePoint" />
            <mxPoint x="980" y="759.86" as="targetPoint" />
          </mxGeometry>
        </mxCell>
        <mxCell id="uTGB7-8AL9huUT3PJvHm-85" value="" style="endArrow=none;html=1;rounded=0;exitX=1;exitY=0.088;exitDx=0;exitDy=0;exitPerimeter=0;entryX=1;entryY=0.088;entryDx=0;entryDy=0;entryPerimeter=0;" parent="1" source="uTGB7-8AL9huUT3PJvHm-72" edge="1">
          <mxGeometry width="50" height="50" relative="1" as="geometry">
            <mxPoint x="1435" y="709.5" as="sourcePoint" />
            <mxPoint x="1235" y="710" as="targetPoint" />
          </mxGeometry>
        </mxCell>
        <mxCell id="uTGB7-8AL9huUT3PJvHm-91" value="1" style="text;html=1;align=center;verticalAlign=middle;resizable=0;points=[];autosize=1;strokeColor=none;fillColor=none;" parent="1" vertex="1">
          <mxGeometry x="1138" y="680" width="30" height="30" as="geometry" />
        </mxCell>
        <mxCell id="uTGB7-8AL9huUT3PJvHm-92" value="1" style="text;html=1;align=center;verticalAlign=middle;resizable=0;points=[];autosize=1;strokeColor=none;fillColor=none;" parent="1" vertex="1">
          <mxGeometry x="1205" y="680" width="30" height="30" as="geometry" />
        </mxCell>
        <mxCell id="uTGB7-8AL9huUT3PJvHm-93" value="1" style="text;html=1;align=center;verticalAlign=middle;resizable=0;points=[];autosize=1;strokeColor=none;fillColor=none;" parent="1" vertex="1">
          <mxGeometry x="1065" y="720" width="30" height="30" as="geometry" />
        </mxCell>
        <mxCell id="uTGB7-8AL9huUT3PJvHm-94" value="1" style="text;html=1;align=center;verticalAlign=middle;resizable=0;points=[];autosize=1;strokeColor=none;fillColor=none;" parent="1" vertex="1">
          <mxGeometry x="1065" y="770" width="30" height="30" as="geometry" />
        </mxCell>
        <mxCell id="uTGB7-8AL9huUT3PJvHm-95" value="1" style="text;html=1;align=center;verticalAlign=middle;resizable=0;points=[];autosize=1;strokeColor=none;fillColor=none;" parent="1" vertex="1">
          <mxGeometry x="965" y="690" width="30" height="30" as="geometry" />
        </mxCell>
        <mxCell id="uTGB7-8AL9huUT3PJvHm-96" value="1" style="text;html=1;align=center;verticalAlign=middle;resizable=0;points=[];autosize=1;strokeColor=none;fillColor=none;" parent="1" vertex="1">
          <mxGeometry x="825" y="720" width="30" height="30" as="geometry" />
        </mxCell>
        <mxCell id="uTGB7-8AL9huUT3PJvHm-97" value="ViewCreazionePost" style="rounded=0;whiteSpace=wrap;html=1;fillColor=#f8cecc;strokeColor=#b85450;" parent="1" vertex="1">
          <mxGeometry x="1341" y="250" width="110" height="30" as="geometry" />
        </mxCell>
        <mxCell id="uTGB7-8AL9huUT3PJvHm-204" style="edgeStyle=orthogonalEdgeStyle;shape=connector;curved=1;rounded=0;orthogonalLoop=1;jettySize=auto;html=1;exitX=1;exitY=1;exitDx=0;exitDy=0;entryX=0.5;entryY=0;entryDx=0;entryDy=0;dashed=1;dashPattern=8 8;labelBackgroundColor=default;strokeColor=#99CCFF;fontFamily=Helvetica;fontSize=11;fontColor=default;endArrow=classic;" parent="1" source="uTGB7-8AL9huUT3PJvHm-98" target="uTGB7-8AL9huUT3PJvHm-68" edge="1">
          <mxGeometry relative="1" as="geometry">
            <Array as="points">
              <mxPoint x="1451" y="620" />
              <mxPoint x="1138" y="620" />
              <mxPoint x="1138" y="650" />
              <mxPoint x="1065" y="650" />
            </Array>
          </mxGeometry>
        </mxCell>
        <mxCell id="uTGB7-8AL9huUT3PJvHm-98" value="" style="rounded=0;whiteSpace=wrap;html=1;fillColor=#f5f5f5;fontColor=#333333;strokeColor=#666666;" parent="1" vertex="1">
          <mxGeometry x="1341" y="280" width="110" height="40" as="geometry" />
        </mxCell>
        <mxCell id="uTGB7-8AL9huUT3PJvHm-99" value="" style="endArrow=none;html=1;rounded=0;exitX=0;exitY=0.5;exitDx=0;exitDy=0;entryX=1;entryY=0.5;entryDx=0;entryDy=0;fillColor=#f5f5f5;strokeColor=#666666;" parent="1" source="uTGB7-8AL9huUT3PJvHm-98" target="uTGB7-8AL9huUT3PJvHm-98" edge="1">
          <mxGeometry width="50" height="50" relative="1" as="geometry">
            <mxPoint x="1311" y="280" as="sourcePoint" />
            <mxPoint x="1361" y="230" as="targetPoint" />
          </mxGeometry>
        </mxCell>
        <mxCell id="uTGB7-8AL9huUT3PJvHm-133" style="edgeStyle=orthogonalEdgeStyle;rounded=0;orthogonalLoop=1;jettySize=auto;html=1;exitX=0.25;exitY=1;exitDx=0;exitDy=0;entryX=0.144;entryY=0.067;entryDx=0;entryDy=0;entryPerimeter=0;" parent="1" source="uTGB7-8AL9huUT3PJvHm-101" target="uTGB7-8AL9huUT3PJvHm-130" edge="1">
          <mxGeometry relative="1" as="geometry" />
        </mxCell>
        <mxCell id="uTGB7-8AL9huUT3PJvHm-195" style="edgeStyle=orthogonalEdgeStyle;shape=connector;curved=1;rounded=0;orthogonalLoop=1;jettySize=auto;html=1;exitX=0.75;exitY=1;exitDx=0;exitDy=0;entryX=0.5;entryY=0;entryDx=0;entryDy=0;dashed=1;dashPattern=8 8;labelBackgroundColor=default;strokeColor=#99CCFF;fontFamily=Helvetica;fontSize=11;fontColor=default;endArrow=classic;" parent="1" source="uTGB7-8AL9huUT3PJvHm-101" target="uTGB7-8AL9huUT3PJvHm-68" edge="1">
          <mxGeometry relative="1" as="geometry">
            <Array as="points">
              <mxPoint x="710" y="345" />
              <mxPoint x="710" y="580" />
              <mxPoint x="1029" y="580" />
              <mxPoint x="1029" y="640" />
              <mxPoint x="1065" y="640" />
            </Array>
          </mxGeometry>
        </mxCell>
        <mxCell id="uTGB7-8AL9huUT3PJvHm-101" value="" style="rounded=0;whiteSpace=wrap;html=1;fillColor=#f5f5f5;fontColor=#333333;strokeColor=#666666;" parent="1" vertex="1">
          <mxGeometry x="723" y="305" width="110" height="40" as="geometry" />
        </mxCell>
        <mxCell id="uTGB7-8AL9huUT3PJvHm-102" value="" style="endArrow=none;html=1;rounded=0;exitX=0;exitY=0.5;exitDx=0;exitDy=0;entryX=1;entryY=0.5;entryDx=0;entryDy=0;fillColor=#f5f5f5;strokeColor=#666666;" parent="1" source="uTGB7-8AL9huUT3PJvHm-101" target="uTGB7-8AL9huUT3PJvHm-101" edge="1">
          <mxGeometry width="50" height="50" relative="1" as="geometry">
            <mxPoint x="713" y="310" as="sourcePoint" />
            <mxPoint x="763" y="260" as="targetPoint" />
          </mxGeometry>
        </mxCell>
        <mxCell id="uTGB7-8AL9huUT3PJvHm-107" value="ViewRicercaAvanzata" style="rounded=0;whiteSpace=wrap;html=1;fillColor=#f8cecc;strokeColor=#b85450;" parent="1" vertex="1">
          <mxGeometry x="1053.5" y="390" width="145" height="30" as="geometry" />
        </mxCell>
        <mxCell id="uTGB7-8AL9huUT3PJvHm-198" style="edgeStyle=orthogonalEdgeStyle;shape=connector;curved=1;rounded=0;orthogonalLoop=1;jettySize=auto;html=1;exitX=0.5;exitY=1;exitDx=0;exitDy=0;entryX=0.5;entryY=0;entryDx=0;entryDy=0;dashed=1;dashPattern=8 8;labelBackgroundColor=default;strokeColor=#99CCFF;fontFamily=Helvetica;fontSize=11;fontColor=default;endArrow=classic;" parent="1" source="uTGB7-8AL9huUT3PJvHm-108" target="uTGB7-8AL9huUT3PJvHm-68" edge="1">
          <mxGeometry relative="1" as="geometry" />
        </mxCell>
        <mxCell id="uTGB7-8AL9huUT3PJvHm-108" value="" style="rounded=0;whiteSpace=wrap;html=1;fillColor=#f5f5f5;fontColor=#333333;strokeColor=#666666;" parent="1" vertex="1">
          <mxGeometry x="1053.5" y="420" width="145" height="40" as="geometry" />
        </mxCell>
        <mxCell id="uTGB7-8AL9huUT3PJvHm-109" value="" style="endArrow=none;html=1;rounded=0;exitX=0;exitY=0.5;exitDx=0;exitDy=0;entryX=1;entryY=0.5;entryDx=0;entryDy=0;fillColor=#f5f5f5;strokeColor=#666666;" parent="1" source="uTGB7-8AL9huUT3PJvHm-108" target="uTGB7-8AL9huUT3PJvHm-108" edge="1">
          <mxGeometry width="50" height="50" relative="1" as="geometry">
            <mxPoint x="1023.5" y="420" as="sourcePoint" />
            <mxPoint x="1073.5" y="370" as="targetPoint" />
          </mxGeometry>
        </mxCell>
        <mxCell id="uTGB7-8AL9huUT3PJvHm-112" value="ViewProfilo" style="rounded=0;whiteSpace=wrap;html=1;fillColor=#f8cecc;strokeColor=#b85450;" parent="1" vertex="1">
          <mxGeometry x="723" y="275" width="110" height="30" as="geometry" />
        </mxCell>
        <mxCell id="uTGB7-8AL9huUT3PJvHm-113" value="" style="endArrow=none;html=1;rounded=0;exitX=0;exitY=0.5;exitDx=0;exitDy=0;entryX=1;entryY=0.5;entryDx=0;entryDy=0;fillColor=#f5f5f5;strokeColor=#666666;" parent="1" edge="1">
          <mxGeometry width="50" height="50" relative="1" as="geometry">
            <mxPoint x="723" y="325" as="sourcePoint" />
            <mxPoint x="833" y="325" as="targetPoint" />
          </mxGeometry>
        </mxCell>
        <mxCell id="uTGB7-8AL9huUT3PJvHm-119" value="ViewProfiloAnimalePersonale" style="rounded=0;whiteSpace=wrap;html=1;fillColor=#f8cecc;strokeColor=#b85450;" parent="1" vertex="1">
          <mxGeometry x="1219" y="375" width="174" height="30" as="geometry" />
        </mxCell>
        <mxCell id="uTGB7-8AL9huUT3PJvHm-183" style="edgeStyle=orthogonalEdgeStyle;rounded=0;orthogonalLoop=1;jettySize=auto;html=1;exitX=0.5;exitY=1;exitDx=0;exitDy=0;entryX=0.5;entryY=0;entryDx=0;entryDy=0;" parent="1" source="uTGB7-8AL9huUT3PJvHm-120" target="uTGB7-8AL9huUT3PJvHm-180" edge="1">
          <mxGeometry relative="1" as="geometry" />
        </mxCell>
        <mxCell id="uTGB7-8AL9huUT3PJvHm-193" style="edgeStyle=orthogonalEdgeStyle;rounded=0;orthogonalLoop=1;jettySize=auto;html=1;exitX=1;exitY=0.75;exitDx=0;exitDy=0;entryX=0.25;entryY=0;entryDx=0;entryDy=0;jumpStyle=arc;" parent="1" source="uTGB7-8AL9huUT3PJvHm-28" target="uTGB7-8AL9huUT3PJvHm-192" edge="1">
          <mxGeometry relative="1" as="geometry">
            <Array as="points">
              <mxPoint x="1435" y="335" />
              <mxPoint x="1435" y="465" />
              <mxPoint x="1495" y="465" />
            </Array>
          </mxGeometry>
        </mxCell>
        <mxCell id="uTGB7-8AL9huUT3PJvHm-201" style="edgeStyle=orthogonalEdgeStyle;shape=connector;curved=1;rounded=0;orthogonalLoop=1;jettySize=auto;html=1;exitX=0;exitY=1;exitDx=0;exitDy=0;entryX=0.5;entryY=0;entryDx=0;entryDy=0;dashed=1;dashPattern=8 8;labelBackgroundColor=default;strokeColor=#99CCFF;fontFamily=Helvetica;fontSize=11;fontColor=default;endArrow=classic;" parent="1" source="uTGB7-8AL9huUT3PJvHm-120" target="uTGB7-8AL9huUT3PJvHm-68" edge="1">
          <mxGeometry relative="1" as="geometry" />
        </mxCell>
        <mxCell id="uTGB7-8AL9huUT3PJvHm-120" value="" style="rounded=0;whiteSpace=wrap;html=1;fillColor=#f5f5f5;fontColor=#333333;strokeColor=#666666;" parent="1" vertex="1">
          <mxGeometry x="1219" y="405" width="174" height="40" as="geometry" />
        </mxCell>
        <mxCell id="uTGB7-8AL9huUT3PJvHm-121" value="" style="endArrow=none;html=1;rounded=0;exitX=0;exitY=0.5;exitDx=0;exitDy=0;entryX=1;entryY=0.5;entryDx=0;entryDy=0;fillColor=#f5f5f5;strokeColor=#666666;" parent="1" source="uTGB7-8AL9huUT3PJvHm-120" target="uTGB7-8AL9huUT3PJvHm-120" edge="1">
          <mxGeometry width="50" height="50" relative="1" as="geometry">
            <mxPoint x="1189" y="405" as="sourcePoint" />
            <mxPoint x="1239" y="355" as="targetPoint" />
          </mxGeometry>
        </mxCell>
        <mxCell id="uTGB7-8AL9huUT3PJvHm-130" value="ViewProfiloAnimale" style="rounded=0;whiteSpace=wrap;html=1;fillColor=#f8cecc;strokeColor=#b85450;" parent="1" vertex="1">
          <mxGeometry x="725" y="395" width="174" height="30" as="geometry" />
        </mxCell>
        <mxCell id="uTGB7-8AL9huUT3PJvHm-194" style="edgeStyle=orthogonalEdgeStyle;rounded=0;orthogonalLoop=1;jettySize=auto;html=1;exitX=0.25;exitY=1;exitDx=0;exitDy=0;dashed=1;dashPattern=8 8;strokeColor=#99CCFF;curved=1;" parent="1" source="uTGB7-8AL9huUT3PJvHm-131" target="uTGB7-8AL9huUT3PJvHm-68" edge="1">
          <mxGeometry relative="1" as="geometry" />
        </mxCell>
        <mxCell id="uTGB7-8AL9huUT3PJvHm-131" value="" style="rounded=0;whiteSpace=wrap;html=1;fillColor=#f5f5f5;fontColor=#333333;strokeColor=#666666;" parent="1" vertex="1">
          <mxGeometry x="725" y="425" width="174" height="40" as="geometry" />
        </mxCell>
        <mxCell id="uTGB7-8AL9huUT3PJvHm-132" value="" style="endArrow=none;html=1;rounded=0;exitX=0;exitY=0.5;exitDx=0;exitDy=0;entryX=1;entryY=0.5;entryDx=0;entryDy=0;fillColor=#f5f5f5;strokeColor=#666666;" parent="1" source="uTGB7-8AL9huUT3PJvHm-131" target="uTGB7-8AL9huUT3PJvHm-131" edge="1">
          <mxGeometry width="50" height="50" relative="1" as="geometry">
            <mxPoint x="695" y="425" as="sourcePoint" />
            <mxPoint x="745" y="375" as="targetPoint" />
          </mxGeometry>
        </mxCell>
        <mxCell id="uTGB7-8AL9huUT3PJvHm-134" value="ViewSegnalazione" style="rounded=0;whiteSpace=wrap;html=1;fillColor=#f8cecc;strokeColor=#b85450;" parent="1" vertex="1">
          <mxGeometry x="899" y="485" width="174" height="30" as="geometry" />
        </mxCell>
        <mxCell id="uTGB7-8AL9huUT3PJvHm-196" style="edgeStyle=orthogonalEdgeStyle;shape=connector;curved=1;rounded=0;orthogonalLoop=1;jettySize=auto;html=1;exitX=0.75;exitY=1;exitDx=0;exitDy=0;entryX=0.5;entryY=0;entryDx=0;entryDy=0;dashed=1;dashPattern=8 8;labelBackgroundColor=default;strokeColor=#99CCFF;fontFamily=Helvetica;fontSize=11;fontColor=default;endArrow=classic;" parent="1" source="uTGB7-8AL9huUT3PJvHm-135" target="uTGB7-8AL9huUT3PJvHm-68" edge="1">
          <mxGeometry relative="1" as="geometry" />
        </mxCell>
        <mxCell id="uTGB7-8AL9huUT3PJvHm-135" value="" style="rounded=0;whiteSpace=wrap;html=1;fillColor=#f5f5f5;fontColor=#333333;strokeColor=#666666;" parent="1" vertex="1">
          <mxGeometry x="899" y="515" width="174" height="40" as="geometry" />
        </mxCell>
        <mxCell id="uTGB7-8AL9huUT3PJvHm-136" value="" style="endArrow=none;html=1;rounded=0;exitX=0;exitY=0.5;exitDx=0;exitDy=0;entryX=1;entryY=0.5;entryDx=0;entryDy=0;fillColor=#f5f5f5;strokeColor=#666666;" parent="1" source="uTGB7-8AL9huUT3PJvHm-135" target="uTGB7-8AL9huUT3PJvHm-135" edge="1">
          <mxGeometry width="50" height="50" relative="1" as="geometry">
            <mxPoint x="869" y="515" as="sourcePoint" />
            <mxPoint x="919" y="465" as="targetPoint" />
          </mxGeometry>
        </mxCell>
        <mxCell id="uTGB7-8AL9huUT3PJvHm-180" value="ViewModificaAnimale" style="rounded=0;whiteSpace=wrap;html=1;fillColor=#f8cecc;strokeColor=#b85450;" parent="1" vertex="1">
          <mxGeometry x="1219" y="485" width="174" height="30" as="geometry" />
        </mxCell>
        <mxCell id="uTGB7-8AL9huUT3PJvHm-202" style="edgeStyle=orthogonalEdgeStyle;shape=connector;curved=1;rounded=0;orthogonalLoop=1;jettySize=auto;html=1;exitX=0;exitY=1;exitDx=0;exitDy=0;dashed=1;dashPattern=8 8;labelBackgroundColor=default;strokeColor=#99CCFF;fontFamily=Helvetica;fontSize=11;fontColor=default;endArrow=classic;" parent="1" source="uTGB7-8AL9huUT3PJvHm-181" edge="1">
          <mxGeometry relative="1" as="geometry">
            <mxPoint x="1070" y="670" as="targetPoint" />
          </mxGeometry>
        </mxCell>
        <mxCell id="uTGB7-8AL9huUT3PJvHm-181" value="" style="rounded=0;whiteSpace=wrap;html=1;fillColor=#f5f5f5;fontColor=#333333;strokeColor=#666666;" parent="1" vertex="1">
          <mxGeometry x="1219" y="515" width="174" height="40" as="geometry" />
        </mxCell>
        <mxCell id="uTGB7-8AL9huUT3PJvHm-182" value="" style="endArrow=none;html=1;rounded=0;exitX=0;exitY=0.5;exitDx=0;exitDy=0;entryX=1;entryY=0.5;entryDx=0;entryDy=0;fillColor=#f5f5f5;strokeColor=#666666;" parent="1" source="uTGB7-8AL9huUT3PJvHm-181" target="uTGB7-8AL9huUT3PJvHm-181" edge="1">
          <mxGeometry width="50" height="50" relative="1" as="geometry">
            <mxPoint x="1189" y="515" as="sourcePoint" />
            <mxPoint x="1239" y="465" as="targetPoint" />
          </mxGeometry>
        </mxCell>
        <mxCell id="uTGB7-8AL9huUT3PJvHm-184" value="ViewModificaProfilo" style="rounded=0;whiteSpace=wrap;html=1;fillColor=#f8cecc;strokeColor=#b85450;" parent="1" vertex="1">
          <mxGeometry x="1495" y="347" width="174" height="30" as="geometry" />
        </mxCell>
        <mxCell id="uTGB7-8AL9huUT3PJvHm-205" style="edgeStyle=orthogonalEdgeStyle;shape=connector;curved=1;rounded=0;orthogonalLoop=1;jettySize=auto;html=1;exitX=0;exitY=1;exitDx=0;exitDy=0;entryX=0.5;entryY=0;entryDx=0;entryDy=0;dashed=1;dashPattern=8 8;labelBackgroundColor=default;strokeColor=#99CCFF;fontFamily=Helvetica;fontSize=11;fontColor=default;endArrow=classic;" parent="1" source="uTGB7-8AL9huUT3PJvHm-185" target="uTGB7-8AL9huUT3PJvHm-68" edge="1">
          <mxGeometry relative="1" as="geometry">
            <Array as="points">
              <mxPoint x="1440" y="417" />
              <mxPoint x="1440" y="600" />
              <mxPoint x="1065" y="600" />
            </Array>
          </mxGeometry>
        </mxCell>
        <mxCell id="uTGB7-8AL9huUT3PJvHm-185" value="" style="rounded=0;whiteSpace=wrap;html=1;fillColor=#f5f5f5;fontColor=#333333;strokeColor=#666666;" parent="1" vertex="1">
          <mxGeometry x="1495" y="377" width="174" height="40" as="geometry" />
        </mxCell>
        <mxCell id="uTGB7-8AL9huUT3PJvHm-186" value="" style="endArrow=none;html=1;rounded=0;exitX=0;exitY=0.5;exitDx=0;exitDy=0;entryX=1;entryY=0.5;entryDx=0;entryDy=0;fillColor=#f5f5f5;strokeColor=#666666;" parent="1" source="uTGB7-8AL9huUT3PJvHm-185" target="uTGB7-8AL9huUT3PJvHm-185" edge="1">
          <mxGeometry width="50" height="50" relative="1" as="geometry">
            <mxPoint x="1465" y="377" as="sourcePoint" />
            <mxPoint x="1515" y="327" as="targetPoint" />
          </mxGeometry>
        </mxCell>
        <mxCell id="uTGB7-8AL9huUT3PJvHm-188" value="" style="endArrow=none;html=1;rounded=0;exitX=0;exitY=0.5;exitDx=0;exitDy=0;entryX=1;entryY=0.5;entryDx=0;entryDy=0;fillColor=#f5f5f5;strokeColor=#666666;" parent="1" edge="1">
          <mxGeometry width="50" height="50" relative="1" as="geometry">
            <mxPoint x="1219" y="535" as="sourcePoint" />
            <mxPoint x="1393" y="535" as="targetPoint" />
          </mxGeometry>
        </mxCell>
        <mxCell id="uTGB7-8AL9huUT3PJvHm-189" value="ViewModificaAnimale" style="rounded=0;whiteSpace=wrap;html=1;fillColor=#f8cecc;strokeColor=#b85450;" parent="1" vertex="1">
          <mxGeometry x="1219" y="485" width="174" height="30" as="geometry" />
        </mxCell>
        <mxCell id="uTGB7-8AL9huUT3PJvHm-206" style="edgeStyle=orthogonalEdgeStyle;shape=connector;curved=1;rounded=0;orthogonalLoop=1;jettySize=auto;html=1;exitX=0;exitY=1;exitDx=0;exitDy=0;dashed=1;dashPattern=8 8;labelBackgroundColor=default;strokeColor=#99CCFF;fontFamily=Helvetica;fontSize=11;fontColor=default;endArrow=classic;" parent="1" source="uTGB7-8AL9huUT3PJvHm-190" edge="1">
          <mxGeometry relative="1" as="geometry">
            <mxPoint x="1060" y="670" as="targetPoint" />
          </mxGeometry>
        </mxCell>
        <mxCell id="uTGB7-8AL9huUT3PJvHm-190" value="" style="rounded=0;whiteSpace=wrap;html=1;fillColor=#f5f5f5;fontColor=#333333;strokeColor=#666666;" parent="1" vertex="1">
          <mxGeometry x="1451" y="515" width="174" height="40" as="geometry" />
        </mxCell>
        <mxCell id="uTGB7-8AL9huUT3PJvHm-191" value="" style="endArrow=none;html=1;rounded=0;exitX=0;exitY=0.5;exitDx=0;exitDy=0;entryX=1;entryY=0.5;entryDx=0;entryDy=0;fillColor=#f5f5f5;strokeColor=#666666;" parent="1" edge="1">
          <mxGeometry width="50" height="50" relative="1" as="geometry">
            <mxPoint x="1451" y="535" as="sourcePoint" />
            <mxPoint x="1625" y="535" as="targetPoint" />
          </mxGeometry>
        </mxCell>
        <mxCell id="uTGB7-8AL9huUT3PJvHm-192" value="ViewAggiungiAnimale" style="rounded=0;whiteSpace=wrap;html=1;fillColor=#f8cecc;strokeColor=#b85450;" parent="1" vertex="1">
          <mxGeometry x="1451" y="485" width="174" height="30" as="geometry" />
        </mxCell>
        <mxCell id="uTGB7-8AL9huUT3PJvHm-207" value="&lt;font color=&quot;#99ccff&quot;&gt;&amp;lt;&amp;lt;uses&amp;gt;&amp;gt;&lt;/font&gt;" style="text;html=1;align=center;verticalAlign=middle;resizable=0;points=[];autosize=1;strokeColor=none;fillColor=none;fontSize=11;fontFamily=Helvetica;fontColor=default;" parent="1" vertex="1">
          <mxGeometry x="700" y="365" width="70" height="30" as="geometry" />
        </mxCell>
        <mxCell id="uTGB7-8AL9huUT3PJvHm-208" value="&lt;font color=&quot;#99ccff&quot;&gt;&amp;lt;&amp;lt;uses&amp;gt;&amp;gt;&lt;/font&gt;" style="text;html=1;align=center;verticalAlign=middle;resizable=0;points=[];autosize=1;strokeColor=none;fillColor=none;fontSize=11;fontFamily=Helvetica;fontColor=default;" parent="1" vertex="1">
          <mxGeometry x="745" y="480" width="70" height="30" as="geometry" />
        </mxCell>
        <mxCell id="uTGB7-8AL9huUT3PJvHm-210" value="&lt;font color=&quot;#99ccff&quot;&gt;&amp;lt;&amp;lt;uses&amp;gt;&amp;gt;&lt;/font&gt;" style="text;html=1;align=center;verticalAlign=middle;resizable=0;points=[];autosize=1;strokeColor=none;fillColor=none;fontSize=11;fontFamily=Helvetica;fontColor=default;" parent="1" vertex="1">
          <mxGeometry x="955" y="347" width="70" height="30" as="geometry" />
        </mxCell>
        <mxCell id="uTGB7-8AL9huUT3PJvHm-212" value="&lt;font color=&quot;#99ccff&quot;&gt;&amp;lt;&amp;lt;uses&amp;gt;&amp;gt;&lt;/font&gt;" style="text;html=1;align=center;verticalAlign=middle;resizable=0;points=[];autosize=1;strokeColor=none;fillColor=none;fontSize=11;fontFamily=Helvetica;fontColor=default;" parent="1" vertex="1">
          <mxGeometry x="995" y="382" width="70" height="30" as="geometry" />
        </mxCell>
        <mxCell id="uTGB7-8AL9huUT3PJvHm-213" value="&lt;font color=&quot;#99ccff&quot;&gt;&amp;lt;&amp;lt;uses&amp;gt;&amp;gt;&lt;/font&gt;" style="text;html=1;align=center;verticalAlign=middle;resizable=0;points=[];autosize=1;strokeColor=none;fillColor=none;fontSize=11;fontFamily=Helvetica;fontColor=default;" parent="1" vertex="1">
          <mxGeometry x="1003" y="550" width="70" height="30" as="geometry" />
        </mxCell>
        <mxCell id="uTGB7-8AL9huUT3PJvHm-214" value="&lt;font color=&quot;#99ccff&quot;&gt;&amp;lt;&amp;lt;uses&amp;gt;&amp;gt;&lt;/font&gt;" style="text;html=1;align=center;verticalAlign=middle;resizable=0;points=[];autosize=1;strokeColor=none;fillColor=none;fontSize=11;fontFamily=Helvetica;fontColor=default;" parent="1" vertex="1">
          <mxGeometry x="1115.5" y="465" width="70" height="30" as="geometry" />
        </mxCell>
        <mxCell id="uTGB7-8AL9huUT3PJvHm-215" value="&lt;font color=&quot;#99ccff&quot;&gt;&amp;lt;&amp;lt;uses&amp;gt;&amp;gt;&lt;/font&gt;" style="text;html=1;align=center;verticalAlign=middle;resizable=0;points=[];autosize=1;strokeColor=none;fillColor=none;fontSize=11;fontFamily=Helvetica;fontColor=default;" parent="1" vertex="1">
          <mxGeometry x="1185" y="347" width="70" height="30" as="geometry" />
        </mxCell>
        <mxCell id="uTGB7-8AL9huUT3PJvHm-216" value="&lt;font color=&quot;#99ccff&quot;&gt;&amp;lt;&amp;lt;uses&amp;gt;&amp;gt;&lt;/font&gt;" style="text;html=1;align=center;verticalAlign=middle;resizable=0;points=[];autosize=1;strokeColor=none;fillColor=none;fontSize=11;fontFamily=Helvetica;fontColor=default;" parent="1" vertex="1">
          <mxGeometry x="1198.5" y="450" width="70" height="30" as="geometry" />
        </mxCell>
        <mxCell id="uTGB7-8AL9huUT3PJvHm-217" value="&lt;font color=&quot;#99ccff&quot;&gt;&amp;lt;&amp;lt;uses&amp;gt;&amp;gt;&lt;/font&gt;" style="text;html=1;align=center;verticalAlign=middle;resizable=0;points=[];autosize=1;strokeColor=none;fillColor=none;fontSize=11;fontFamily=Helvetica;fontColor=default;" parent="1" vertex="1">
          <mxGeometry x="1206" y="560" width="70" height="30" as="geometry" />
        </mxCell>
        <mxCell id="uTGB7-8AL9huUT3PJvHm-218" value="&lt;font color=&quot;#99ccff&quot;&gt;&amp;lt;&amp;lt;uses&amp;gt;&amp;gt;&lt;/font&gt;" style="text;html=1;align=center;verticalAlign=middle;resizable=0;points=[];autosize=1;strokeColor=none;fillColor=none;fontSize=11;fontFamily=Helvetica;fontColor=default;" parent="1" vertex="1">
          <mxGeometry x="1430" y="325" width="70" height="30" as="geometry" />
        </mxCell>
        <mxCell id="uTGB7-8AL9huUT3PJvHm-219" value="&lt;font color=&quot;#99ccff&quot;&gt;&amp;lt;&amp;lt;uses&amp;gt;&amp;gt;&lt;/font&gt;" style="text;html=1;align=center;verticalAlign=middle;resizable=0;points=[];autosize=1;strokeColor=none;fillColor=none;fontSize=11;fontFamily=Helvetica;fontColor=default;" parent="1" vertex="1">
          <mxGeometry x="1440" y="415" width="70" height="30" as="geometry" />
        </mxCell>
        <mxCell id="uTGB7-8AL9huUT3PJvHm-220" value="&lt;font color=&quot;#99ccff&quot;&gt;&amp;lt;&amp;lt;uses&amp;gt;&amp;gt;&lt;/font&gt;" style="text;html=1;align=center;verticalAlign=middle;resizable=0;points=[];autosize=1;strokeColor=none;fillColor=none;fontSize=11;fontFamily=Helvetica;fontColor=default;" parent="1" vertex="1">
          <mxGeometry x="1425" y="555" width="70" height="30" as="geometry" />
        </mxCell>
        <mxCell id="vFtJmrt-cF-v624r3XUk-1" value="" style="endArrow=classic;html=1;rounded=0;exitX=0.5;exitY=0;exitDx=0;exitDy=0;entryX=0.5;entryY=0;entryDx=0;entryDy=0;" parent="1" source="uTGB7-8AL9huUT3PJvHm-4" target="uTGB7-8AL9huUT3PJvHm-21" edge="1">
          <mxGeometry width="50" height="50" relative="1" as="geometry">
            <mxPoint x="590" y="340" as="sourcePoint" />
            <mxPoint x="215" y="80" as="targetPoint" />
            <Array as="points">
              <mxPoint x="215" y="80" />
              <mxPoint x="1100" y="80" />
            </Array>
          </mxGeometry>
        </mxCell>
        <mxCell id="vFtJmrt-cF-v624r3XUk-2" value="" style="endArrow=classic;html=1;rounded=0;exitX=1;exitY=1;exitDx=0;exitDy=0;entryX=0;entryY=0.5;entryDx=0;entryDy=0;" parent="1" source="uTGB7-8AL9huUT3PJvHm-28" target="uTGB7-8AL9huUT3PJvHm-184" edge="1">
          <mxGeometry width="50" height="50" relative="1" as="geometry">
            <mxPoint x="1440" y="410" as="sourcePoint" />
            <mxPoint x="1490" y="370" as="targetPoint" />
            <Array as="points">
              <mxPoint x="1330" y="362" />
            </Array>
          </mxGeometry>
        </mxCell>
        <mxCell id="qGIBENsIal78VmMxlY2n-2" value="" style="endArrow=none;html=1;rounded=0;exitX=0.004;exitY=0.149;exitDx=0;exitDy=0;exitPerimeter=0;" edge="1" parent="1" target="qGIBENsIal78VmMxlY2n-1">
          <mxGeometry width="50" height="50" relative="1" as="geometry">
            <mxPoint x="735" y="790" as="sourcePoint" />
            <mxPoint x="935" y="790" as="targetPoint" />
          </mxGeometry>
        </mxCell>
        <mxCell id="qGIBENsIal78VmMxlY2n-1" value="&lt;br&gt;+Ricerca(username)&lt;br&gt;+Ricerca(username, zona, tipoProfilo, specie, professione)" style="rounded=0;whiteSpace=wrap;html=1;fillColor=#f5f5f5;fontColor=#333333;strokeColor=#666666;" vertex="1" parent="1">
          <mxGeometry x="735" y="770" width="200" height="70" as="geometry" />
        </mxCell>
        <mxCell id="qGIBENsIal78VmMxlY2n-3" value="" style="endArrow=none;html=1;rounded=0;entryX=1;entryY=0.25;entryDx=0;entryDy=0;exitX=0;exitY=0.25;exitDx=0;exitDy=0;" edge="1" parent="1" source="qGIBENsIal78VmMxlY2n-1" target="qGIBENsIal78VmMxlY2n-1">
          <mxGeometry width="50" height="50" relative="1" as="geometry">
            <mxPoint x="690" y="840" as="sourcePoint" />
            <mxPoint x="740" y="790" as="targetPoint" />
          </mxGeometry>
        </mxCell>
        <mxCell id="qGIBENsIal78VmMxlY2n-4" value="&amp;lt;&amp;lt;uses&amp;gt;&amp;gt;" style="endArrow=none;dashed=1;html=1;rounded=0;" edge="1" parent="1">
          <mxGeometry width="50" height="50" relative="1" as="geometry">
            <mxPoint x="580" y="800" as="sourcePoint" />
            <mxPoint x="740" y="800" as="targetPoint" />
          </mxGeometry>
        </mxCell>
        <mxCell id="qGIBENsIal78VmMxlY2n-5" value="" style="endArrow=none;html=1;rounded=0;" edge="1" parent="1">
          <mxGeometry width="50" height="50" relative="1" as="geometry">
            <mxPoint x="1079" y="970" as="sourcePoint" />
            <mxPoint x="579" y="800" as="targetPoint" />
            <Array as="points">
              <mxPoint x="829" y="970" />
              <mxPoint x="579" y="970" />
            </Array>
          </mxGeometry>
        </mxCell>
        <mxCell id="qGIBENsIal78VmMxlY2n-6" value="&amp;lt;&amp;lt;uses&amp;gt;&amp;gt;" style="endArrow=none;dashed=1;html=1;rounded=0;exitX=0.5;exitY=1;exitDx=0;exitDy=0;" edge="1" parent="1" source="uTGB7-8AL9huUT3PJvHm-72">
          <mxGeometry width="50" height="50" relative="1" as="geometry">
            <mxPoint x="1160" y="860" as="sourcePoint" />
            <mxPoint x="1080" y="970" as="targetPoint" />
            <Array as="points">
              <mxPoint x="1345" y="970" />
            </Array>
          </mxGeometry>
        </mxCell>
        <mxCell id="qGIBENsIal78VmMxlY2n-8" value="&amp;lt;&amp;lt;uses&amp;gt;&amp;gt;" style="endArrow=none;dashed=1;html=1;rounded=0;entryX=0.5;entryY=1;entryDx=0;entryDy=0;" edge="1" parent="1" target="uTGB7-8AL9huUT3PJvHm-82">
          <mxGeometry width="50" height="50" relative="1" as="geometry">
            <mxPoint x="1080" y="970" as="sourcePoint" />
            <mxPoint x="970" y="810" as="targetPoint" />
          </mxGeometry>
        </mxCell>
        <mxCell id="qGIBENsIal78VmMxlY2n-9" value="Modifica Profilo Professionista Controller" style="rounded=0;whiteSpace=wrap;html=1;fillColor=#d5e8d4;strokeColor=#82b366;" vertex="1" parent="1">
          <mxGeometry x="230" y="735" width="150" height="35" as="geometry" />
        </mxCell>
        <mxCell id="qGIBENsIal78VmMxlY2n-10" value="&lt;br&gt;&lt;br&gt;+ModificaProfilo(username, profilo)" style="rounded=0;whiteSpace=wrap;html=1;fillColor=#f5f5f5;fontColor=#333333;strokeColor=#666666;" vertex="1" parent="1">
          <mxGeometry x="230" y="770" width="150" height="60" as="geometry" />
        </mxCell>
        <mxCell id="qGIBENsIal78VmMxlY2n-11" value="&lt;br&gt;&lt;br&gt;+CreazioneProPost(username, Propost)" style="rounded=0;whiteSpace=wrap;html=1;fillColor=#f5f5f5;fontColor=#333333;strokeColor=#666666;" vertex="1" parent="1">
          <mxGeometry x="40" y="770" width="170" height="60" as="geometry" />
        </mxCell>
        <mxCell id="qGIBENsIal78VmMxlY2n-12" value="" style="endArrow=classic;html=1;rounded=0;entryX=0.5;entryY=0;entryDx=0;entryDy=0;exitX=0.5;exitY=1;exitDx=0;exitDy=0;" edge="1" parent="1" source="uTGB7-8AL9huUT3PJvHm-42">
          <mxGeometry width="50" height="50" relative="1" as="geometry">
            <mxPoint x="210" y="700" as="sourcePoint" />
            <mxPoint x="300" y="735" as="targetPoint" />
          </mxGeometry>
        </mxCell>
        <mxCell id="qGIBENsIal78VmMxlY2n-14" value="1" style="text;html=1;strokeColor=none;fillColor=none;align=center;verticalAlign=middle;whiteSpace=wrap;rounded=0;" vertex="1" parent="1">
          <mxGeometry x="120" y="690" width="60" height="30" as="geometry" />
        </mxCell>
        <mxCell id="qGIBENsIal78VmMxlY2n-15" value="1" style="text;html=1;strokeColor=none;fillColor=none;align=center;verticalAlign=middle;whiteSpace=wrap;rounded=0;" vertex="1" parent="1">
          <mxGeometry x="220" y="690" width="60" height="30" as="geometry" />
        </mxCell>
        <mxCell id="qGIBENsIal78VmMxlY2n-17" value="" style="endArrow=none;html=1;rounded=0;exitX=0;exitY=0.5;exitDx=0;exitDy=0;entryX=1;entryY=0.5;entryDx=0;entryDy=0;" edge="1" parent="1" source="qGIBENsIal78VmMxlY2n-11" target="qGIBENsIal78VmMxlY2n-11">
          <mxGeometry width="50" height="50" relative="1" as="geometry">
            <mxPoint x="580" y="670" as="sourcePoint" />
            <mxPoint x="630" y="620" as="targetPoint" />
          </mxGeometry>
        </mxCell>
        <mxCell id="qGIBENsIal78VmMxlY2n-18" value="" style="endArrow=none;html=1;rounded=0;exitX=0;exitY=0.5;exitDx=0;exitDy=0;entryX=1;entryY=0.5;entryDx=0;entryDy=0;" edge="1" parent="1" source="qGIBENsIal78VmMxlY2n-10" target="qGIBENsIal78VmMxlY2n-10">
          <mxGeometry width="50" height="50" relative="1" as="geometry">
            <mxPoint x="580" y="670" as="sourcePoint" />
            <mxPoint x="630" y="620" as="targetPoint" />
          </mxGeometry>
        </mxCell>
        <mxCell id="qGIBENsIal78VmMxlY2n-19" value="&amp;lt;&amp;lt;uses&amp;gt;&amp;gt;" style="endArrow=none;dashed=1;html=1;rounded=0;exitX=0.5;exitY=1;exitDx=0;exitDy=0;" edge="1" parent="1">
          <mxGeometry width="50" height="50" relative="1" as="geometry">
            <mxPoint x="123" y="830" as="sourcePoint" />
            <mxPoint x="578" y="880" as="targetPoint" />
            <Array as="points">
              <mxPoint x="123" y="880" />
            </Array>
          </mxGeometry>
        </mxCell>
      </root>
    </mxGraphModel>
  </diagram>
</mxfile>
